# xmcd
#
# Track frame offsets: 
#        150
#        21056
#        41045
#        60045
#        78707
#        98648
#        115622
#        134396
#        149983
#        169511
#        189504
#        209116
#
# Disc length: 3038 seconds
#
# Revision: 0
# Processed by: cddbd v1.5.2PL0 Copyright (c) Steve Scherf et al.
# Submitted via: ExactAudioCopy v0.95b4
#
DISCID=a70bdc0c
DTITLE=Sebeare - Net Te Leauwen Blau
DYEAR=2006
DGENRE=Pop
TTITLE0=Nei de oare kant
TTITLE1=Ein as in nij begjin
TTITLE2=Ein fan dit beslút
TTITLE3=Net te leauwen blau
TTITLE4=Heitelân
TTITLE5=Fjoer
TTITLE6=Dûnsje en ferjitte
TTITLE7=Frijheid (is net te keap)
TTITLE8=Nim dy mei
TTITLE9=De see
TTITLE10=Sûnder spyt
TTITLE11=Mear as my
EXTD=
EXTT0=
EXTT1=
EXTT2=
EXTT3=
EXTT4=
EXTT5=
EXTT6=
EXTT7=
EXTT8=
EXTT9=
EXTT10=
EXTT11=
PLAYORDER=
